<svg width="800" height="800" viewBox="0 0 800 800" fill="none" xmlns="http://www.w3.org/2000/svg" role="img" aria-label="RunAPI">
  <rect width="800" height="800" fill="#000"/>
  <path d="M262 242H538C591.6 242 635 285.4 635 339C635 392.6 591.6 436 538 436H469C471.9 424.7 473.5 412.7 473.5 400C473.5 387.3 471.9 375.3 469 364H538C555.7 364 570 349.7 570 332C570 314.3 555.7 300 538 300H262C244.3 300 230 314.3 230 332C230 349.7 244.3 364 262 364H331C328.1 375.3 326.5 387.3 326.5 400C326.5 412.7 328.1 424.7 331 436H262C208.4 436 165 392.6 165 339C165 285.4 208.4 242 262 242Z" fill="#fff"/>
  <path d="M262 412H331C328.1 423.3 326.5 435.3 326.5 448C326.5 460.7 328.1 472.7 331 484H262C244.3 484 230 498.3 230 516C230 533.7 244.3 548 262 548H538C555.7 548 570 533.7 570 516C570 498.3 555.7 484 538 484H469C471.9 472.7 473.5 460.7 473.5 448C473.5 435.3 471.9 423.3 469 412H538C591.6 412 635 455.4 635 509C635 562.6 591.6 606 538 606H262C208.4 606 165 562.6 165 509C165 455.4 208.4 412 262 412Z" fill="#747775"/>
  <circle cx="400" cy="400" r="64" fill="#fff"/>
</svg>
